<svg xmlns="http://www.w3.org/2000/svg" width="900" height="420" viewBox="0 0 900 420" font-family="sans-serif"><rect width="900" height="420" fill="white"/><line x1="70" y1="380.0" x2="880" y2="380.0" stroke="#ddd"/><text x="62" y="384.0" text-anchor="end" font-size="12" fill="#555">8,510</text><line x1="70" y1="290.0" x2="880" y2="290.0" stroke="#ddd"/><text x="62" y="294.0" text-anchor="end" font-size="12" fill="#555">10,007</text><line x1="70" y1="200.0" x2="880" y2="200.0" stroke="#ddd"/><text x="62" y="204.0" text-anchor="end" font-size="12" fill="#555">11,503</text><line x1="70" y1="110.0" x2="880" y2="110.0" stroke="#ddd"/><text x="62" y="114.0" text-anchor="end" font-size="12" fill="#555">13,000</text><line x1="70" y1="20.0" x2="880" y2="20.0" stroke="#ddd"/><text x="62" y="24.0" text-anchor="end" font-size="12" fill="#555">14,496</text><text x="70.0" y="408" text-anchor="middle" font-size="12" fill="#555">2023-10-16</text><text x="880.0" y="408" text-anchor="middle" font-size="12" fill="#555">2026-07-31</text><polyline points="70.0,290.4 71.2,287.4 72.4,293.4 73.6,290.4 74.8,296.4 76.0,287.5 77.2,278.4 78.4,284.6 79.6,290.6 80.8,296.6 82.0,302.7 83.2,308.5 84.4,314.4 85.6,305.8 86.8,311.6 88.1,302.9 89.3,294.2 90.5,285.6 91.7,276.9 92.9,283.0 94.1,280.0 95.3,276.9 96.5,283.0 97.7,289.1 98.9,295.1 100.1,286.0 101.3,283.0 102.5,273.9 103.7,270.8 104.9,277.0 106.1,273.9 107.3,280.1 108.5,286.2 109.7,283.1 110.9,274.0 112.1,280.2 113.3,270.9 114.5,261.6 115.7,252.6 116.9,249.5 118.1,255.9 119.3,262.3 120.5,268.7 121.8,274.9 123.0,281.1 124.2,287.2 125.4,284.1 126.6,281.1 127.8,287.1 129.0,293.2 130.2,299.2 131.4,305.2 132.6,311.2 133.8,308.3 135.0,314.2 136.2,320.0 137.4,325.7 138.6,317.2 139.8,323.0 141.0,320.1 142.2,325.8 143.4,331.5 144.6,328.7 145.8,334.3 147.0,325.9 148.2,323.1 149.4,328.7 150.6,334.4 151.8,340.0 153.0,331.7 154.2,328.9 155.5,334.6 156.7,331.8 157.9,323.4 159.1,320.5 160.3,312.0 161.5,309.2 162.7,315.0 163.9,320.7 165.1,312.1 166.3,317.9 167.5,309.3 168.7,315.1 169.9,320.9 171.1,326.6 172.3,332.3 173.5,338.0 174.7,329.5 175.9,321.0 177.1,326.7 178.3,318.2 179.5,323.9 180.7,321.0 181.9,312.5 183.1,318.3 184.3,309.7 185.5,301.1 186.7,306.9 187.9,312.8 189.2,309.9 190.4,301.5 191.6,292.6 192.8,283.7 194.0,280.7 195.2,286.8 196.4,292.9 197.6,283.9 198.8,274.8 200.0,280.8 201.2,277.7 202.4,283.9 203.6,274.7 204.8,280.8 206.0,277.8 207.2,274.7 208.4,271.6 209.6,262.5 210.8,268.7 212.0,274.9 213.2,271.8 214.4,268.7 215.6,265.6 216.8,271.9 218.0,268.8 219.2,275.0 220.4,281.2 221.6,272.1 222.9,269.0 224.1,259.6 225.3,256.5 226.5,247.2 227.7,253.6 228.9,260.1 230.1,256.9 231.3,247.6 232.5,238.1 233.7,234.9 234.9,241.5 236.1,231.7 237.3,228.4 238.5,235.1 239.7,231.7 240.9,221.8 242.1,228.5 243.3,235.2 244.5,231.9 245.7,238.5 246.9,245.1 248.1,235.4 249.3,241.9 250.5,238.6 251.7,245.0 252.9,251.5 254.1,258.0 255.3,264.3 256.6,270.6 257.8,267.5 259.0,257.9 260.2,264.3 261.4,261.2 262.6,267.4 263.8,258.0 265.0,248.5 266.2,254.9 267.4,245.2 268.6,242.0 269.8,248.5 271.0,245.3 272.2,251.8 273.4,248.6 274.6,238.9 275.8,229.3 277.0,226.0 278.2,216.3 279.4,222.9 280.6,229.6 281.8,236.2 283.0,226.3 284.2,223.0 285.4,229.6 286.6,219.7 287.8,209.7 289.0,199.8 290.3,189.8 291.5,186.3 292.7,182.8 293.9,189.9 295.1,196.9 296.3,203.8 297.5,210.7 298.7,200.5 299.9,190.3 301.1,180.1 302.3,176.5 303.5,183.6 304.7,190.7 305.9,187.2 307.1,194.3 308.3,201.4 309.5,197.8 310.7,187.4 311.9,194.4 313.1,190.9 314.3,187.4 315.5,177.0 316.7,173.4 317.9,162.7 319.1,170.0 320.3,166.4 321.5,162.8 322.7,159.2 324.0,166.3 325.2,173.6 326.4,170.0 327.6,166.3 328.8,155.5 330.0,162.8 331.2,159.1 332.4,166.5 333.6,173.9 334.8,170.2 336.0,166.5 337.2,173.8 338.4,180.9 339.6,188.1 340.8,184.5 342.0,173.9 343.2,163.1 344.4,159.5 345.6,155.9 346.8,145.2 348.0,152.6 349.2,148.9 350.4,145.3 351.6,134.1 352.8,141.5 354.0,149.0 355.2,137.8 356.4,145.3 357.7,152.7 358.9,160.2 360.1,149.2 361.3,156.5 362.5,145.3 363.7,152.8 364.9,149.1 366.1,145.4 367.3,141.7 368.5,149.1 369.7,137.9 370.9,126.8 372.1,123.0 373.3,119.2 374.5,126.9 375.7,134.5 376.9,142.1 378.1,149.7 379.3,157.1 380.5,146.1 381.7,134.9 382.9,123.9 384.1,120.1 385.3,127.8 386.5,135.4 387.7,131.5 388.9,139.1 390.1,127.6 391.4,123.9 392.6,131.5 393.8,139.2 395.0,127.9 396.2,124.2 397.4,112.9 398.6,120.7 399.8,128.3 401.0,124.5 402.2,113.1 403.4,109.2 404.6,105.3 405.8,101.4 407.0,97.4 408.2,85.5 409.4,93.4 410.6,89.5 411.8,97.4 413.0,105.3 414.2,101.4 415.4,89.5 416.6,97.4 417.8,105.4 419.0,113.2 420.2,101.2 421.4,89.3 422.6,97.3 423.8,105.3 425.1,93.4 426.3,101.4 427.5,109.4 428.7,105.5 429.9,93.7 431.1,89.8 432.3,85.7 433.5,73.7 434.7,69.7 435.9,57.3 437.1,44.8 438.3,40.6 439.5,36.4 440.7,44.7 441.9,40.5 443.1,49.0 444.3,56.9 445.5,52.7 446.7,61.0 447.9,69.4 449.1,65.1 450.3,73.4 451.5,81.7 452.7,89.9 453.9,98.0 455.1,94.0 456.3,89.8 457.5,85.8 458.8,93.8 460.0,101.8 461.2,109.8 462.4,98.1 463.6,106.0 464.8,102.1 466.0,110.1 467.2,117.9 468.4,114.0 469.6,121.7 470.8,110.2 472.0,118.0 473.2,106.4 474.4,114.1 475.6,102.5 476.8,110.3 478.0,118.1 479.2,114.2 480.4,122.0 481.6,129.9 482.8,137.6 484.0,145.1 485.2,141.4 486.4,137.6 487.6,145.1 488.8,152.6 490.0,160.0 491.2,167.3 492.5,156.4 493.7,145.3 494.9,152.8 496.1,160.2 497.3,167.5 498.5,156.5 499.7,163.9 500.9,171.1 502.1,178.4 503.3,167.4 504.5,163.7 505.7,160.1 506.9,156.5 508.1,152.8 509.3,149.1 510.5,145.4 511.7,134.3 512.9,123.1 514.1,111.6 515.3,119.4 516.5,127.2 517.7,123.4 518.9,131.2 520.1,119.8 521.3,127.4 522.5,135.0 523.7,142.5 524.9,150.1 526.2,146.3 527.4,142.5 528.6,150.0 529.8,157.4 531.0,153.7 532.2,161.1 533.4,150.2 534.6,139.2 535.8,128.2 537.0,135.9 538.2,132.1 539.4,139.4 540.6,146.9 541.8,154.4 543.0,162.0 544.2,151.0 545.4,147.3 546.6,154.8 547.8,151.1 549.0,158.6 550.2,154.9 551.4,151.2 552.6,158.6 553.8,154.9 555.0,162.2 556.2,169.6 557.4,176.9 558.6,184.0 559.9,180.4 561.1,187.5 562.3,194.5 563.5,191.0 564.7,180.5 565.9,187.8 567.1,184.3 568.3,191.4 569.5,187.9 570.7,194.9 571.9,184.4 573.1,191.4 574.3,198.5 575.5,205.6 576.7,212.5 577.9,209.0 579.1,205.6 580.3,212.5 581.5,219.3 582.7,226.1 583.9,232.8 585.1,229.5 586.3,236.1 587.5,226.2 588.7,232.8 589.9,239.4 591.1,245.9 592.3,252.4 593.6,249.2 594.8,245.9 596.0,242.7 597.2,249.2 598.4,239.5 599.6,246.1 600.8,252.5 602.0,258.9 603.2,249.2 604.4,255.7 605.6,262.1 606.8,252.7 608.0,259.0 609.2,255.8 610.4,252.6 611.6,249.4 612.8,246.2 614.0,252.6 615.2,249.4 616.4,255.9 617.6,246.2 618.8,236.6 620.0,243.1 621.2,249.7 622.4,256.1 623.6,246.6 624.8,253.0 626.0,243.5 627.3,240.3 628.5,246.7 629.7,253.2 630.9,259.6 632.1,265.9 633.3,272.2 634.5,262.8 635.7,269.2 636.9,266.1 638.1,262.9 639.3,253.6 640.5,259.9 641.7,266.3 642.9,272.6 644.1,279.0 645.3,275.9 646.5,282.1 647.7,279.0 648.9,269.8 650.1,266.6 651.3,272.9 652.5,279.0 653.7,269.8 654.9,275.9 656.1,272.8 657.3,279.0 658.5,285.2 659.7,282.1 661.0,288.2 662.2,294.3 663.4,291.2 664.6,282.2 665.8,288.2 667.0,294.2 668.2,285.2 669.4,291.3 670.6,288.3 671.8,294.3 673.0,291.3 674.2,288.3 675.4,294.3 676.6,300.3 677.8,306.3 679.0,297.3 680.2,303.2 681.4,294.4 682.6,300.4 683.8,297.4 685.0,288.5 686.2,279.6 687.4,285.8 688.6,276.8 689.8,273.8 691.0,279.9 692.2,286.0 693.4,292.1 694.7,298.1 695.9,289.0 697.1,294.9 698.3,301.0 699.5,298.0 700.7,295.0 701.9,301.0 703.1,306.9 704.3,312.8 705.5,304.1 706.7,295.3 707.9,286.5 709.1,292.4 710.3,283.4 711.5,289.5 712.7,295.5 713.9,301.5 715.1,307.4 716.3,304.5 717.5,310.4 718.7,301.6 719.9,298.7 721.1,304.6 722.3,310.5 723.5,307.5 724.7,298.7 725.9,289.8 727.1,295.8 728.4,292.9 729.6,298.9 730.8,289.9 732.0,286.9 733.2,292.9 734.4,289.9 735.6,295.9 736.8,287.0 738.0,293.0 739.2,284.0 740.4,275.1 741.6,266.1 742.8,272.3 744.0,278.5 745.2,284.7 746.4,290.9 747.6,287.8 748.8,293.9 750.0,284.9 751.2,275.8 752.4,282.0 753.6,278.9 754.8,285.0 756.0,291.1 757.2,297.3 758.4,288.3 759.6,285.3 760.8,291.3 762.1,297.4 763.3,288.5 764.5,294.5 765.7,291.5 766.9,297.5 768.1,294.5 769.3,285.6 770.5,282.6 771.7,288.7 772.9,294.8 774.1,300.7 775.3,306.7 776.5,297.6 777.7,303.4 778.9,300.5 780.1,306.4 781.3,312.3 782.5,309.4 783.7,315.2 784.9,320.9 786.1,326.8 787.3,332.4 788.5,329.5 789.7,335.1 790.9,326.7 792.1,318.4 793.3,315.6 794.5,312.7 795.8,304.0 797.0,301.2 798.2,306.9 799.4,312.8 800.6,304.0 801.8,295.2 803.0,301.2 804.2,307.1 805.4,313.0 806.6,304.2 807.8,295.3 809.0,292.4 810.2,298.3 811.4,304.2 812.6,310.1 813.8,315.9 815.0,321.7 816.2,318.8 817.4,316.0 818.6,313.1 819.8,310.2 821.0,316.0 822.2,321.8 823.4,327.5 824.6,324.7 825.8,330.3 827.0,327.5 828.2,333.2 829.5,330.4 830.7,327.6 831.9,333.2 833.1,338.9 834.3,344.5 835.5,350.0 836.7,355.4 837.9,352.7 839.1,358.1 840.3,355.4 841.5,360.8 842.7,358.1 843.9,363.4 845.1,360.8 846.3,358.1 847.5,350.1 848.7,355.5 849.9,352.8 851.1,358.2 852.3,350.1 853.5,355.5 854.7,352.8 855.9,358.2 857.1,363.6 858.3,360.9 859.5,352.9 860.7,350.2 861.9,355.6 863.2,347.6 864.4,339.6 865.6,345.0 866.8,342.3 868.0,347.8 869.2,339.6 870.4,331.3 871.6,328.5 872.8,325.7 874.0,322.9 875.2,328.6 876.4,325.7 877.6,322.9 878.8,320.2 880.0,311.6" fill="none" stroke="#1a7f5a" stroke-width="2"/><text x="70" y="16" font-size="13" fill="#333">Equity (per closed trade)</text></svg>