<svg xmlns="http://www.w3.org/2000/svg" width="900" height="420" viewBox="0 0 900 420" font-family="sans-serif"><rect width="900" height="420" fill="white"/><line x1="70" y1="380.0" x2="880" y2="380.0" stroke="#ddd"/><text x="62" y="384.0" text-anchor="end" font-size="12" fill="#555">8,818</text><line x1="70" y1="290.0" x2="880" y2="290.0" stroke="#ddd"/><text x="62" y="294.0" text-anchor="end" font-size="12" fill="#555">9,348</text><line x1="70" y1="200.0" x2="880" y2="200.0" stroke="#ddd"/><text x="62" y="204.0" text-anchor="end" font-size="12" fill="#555">9,878</text><line x1="70" y1="110.0" x2="880" y2="110.0" stroke="#ddd"/><text x="62" y="114.0" text-anchor="end" font-size="12" fill="#555">10,409</text><line x1="70" y1="20.0" x2="880" y2="20.0" stroke="#ddd"/><text x="62" y="24.0" text-anchor="end" font-size="12" fill="#555">10,939</text><text x="70.0" y="408" text-anchor="middle" font-size="12" fill="#555">2023-10-24</text><text x="880.0" y="408" text-anchor="middle" font-size="12" fill="#555">2026-07-15</text><polyline points="70.0,179.4 76.4,196.4 82.8,213.1 89.1,179.9 95.5,196.9 101.9,213.5 108.3,230.3 114.6,246.7 121.0,213.1 127.4,229.4 133.8,246.1 140.2,262.4 146.5,279.0 152.9,295.5 159.3,263.5 165.7,231.9 172.0,248.4 178.4,264.5 184.8,232.2 191.2,248.7 197.6,264.8 203.9,280.9 210.3,249.0 216.7,217.1 223.1,233.7 229.4,250.0 235.8,266.2 242.2,282.3 248.6,249.8 255.0,266.1 261.3,233.9 267.7,202.0 274.1,169.2 280.5,137.0 286.9,154.3 293.2,120.4 299.6,138.0 306.0,155.5 312.4,172.7 318.7,189.9 325.1,207.0 331.5,224.2 337.9,191.1 344.3,158.1 350.6,174.6 357.0,191.5 363.4,208.7 369.8,174.6 376.1,140.6 382.5,106.6 388.9,123.9 395.3,141.4 401.7,158.8 408.0,176.5 414.4,141.1 420.8,158.4 427.2,124.5 433.5,141.8 439.9,159.3 446.3,124.6 452.7,90.3 459.1,108.2 465.4,72.4 471.8,36.4 478.2,54.4 484.6,72.6 490.9,89.8 497.3,107.7 503.7,125.3 510.1,142.1 516.5,159.4 522.8,124.0 529.2,89.0 535.6,106.2 542.0,71.2 548.3,89.2 554.7,53.5 561.1,71.3 567.5,89.4 573.9,107.4 580.2,125.1 586.6,90.1 593.0,107.9 599.4,125.6 605.7,90.3 612.1,108.1 618.5,73.1 624.9,91.1 631.3,109.2 637.6,126.8 644.0,144.3 650.4,161.8 656.8,179.0 663.1,196.1 669.5,212.9 675.9,229.5 682.3,246.0 688.7,262.5 695.0,278.6 701.4,246.7 707.8,214.7 714.2,231.3 720.6,247.8 726.9,214.9 733.3,231.5 739.7,248.1 746.1,264.4 752.4,280.5 758.8,296.5 765.2,312.3 771.6,328.4 778.0,297.4 784.3,312.9 790.7,328.5 797.1,297.0 803.5,265.4 809.8,233.8 816.2,250.2 822.6,266.3 829.0,284.2 835.4,300.4 841.7,316.2 848.1,332.3 854.5,347.7 860.9,363.0 867.2,332.8 873.6,348.4 880.0,363.6" fill="none" stroke="#1a7f5a" stroke-width="2"/><text x="70" y="16" font-size="13" fill="#333">Equity (per closed trade)</text></svg>