<svg xmlns="http://www.w3.org/2000/svg" width="900" height="420" viewBox="0 0 900 420" font-family="sans-serif"><rect width="900" height="420" fill="white"/><line x1="70" y1="380.0" x2="880" y2="380.0" stroke="#ddd"/><text x="62" y="384.0" text-anchor="end" font-size="12" fill="#555">8,529</text><line x1="70" y1="290.0" x2="880" y2="290.0" stroke="#ddd"/><text x="62" y="294.0" text-anchor="end" font-size="12" fill="#555">9,130</text><line x1="70" y1="200.0" x2="880" y2="200.0" stroke="#ddd"/><text x="62" y="204.0" text-anchor="end" font-size="12" fill="#555">9,732</text><line x1="70" y1="110.0" x2="880" y2="110.0" stroke="#ddd"/><text x="62" y="114.0" text-anchor="end" font-size="12" fill="#555">10,333</text><line x1="70" y1="20.0" x2="880" y2="20.0" stroke="#ddd"/><text x="62" y="24.0" text-anchor="end" font-size="12" fill="#555">10,934</text><text x="70.0" y="408" text-anchor="middle" font-size="12" fill="#555">2023-09-14</text><text x="880.0" y="408" text-anchor="middle" font-size="12" fill="#555">2026-07-15</text><polyline points="70.0,159.8 75.7,174.8 81.4,189.6 87.1,159.7 92.8,174.3 98.5,144.7 104.2,159.4 109.9,174.4 115.6,189.2 121.3,159.8 127.0,174.8 132.7,189.5 138.5,204.4 144.2,175.1 149.9,189.9 155.6,204.6 161.3,219.2 167.0,233.6 172.7,247.8 178.4,218.5 184.1,232.6 189.8,247.0 195.5,261.1 201.2,275.6 206.9,289.8 212.6,262.2 218.3,234.9 224.0,249.1 229.7,263.0 235.4,235.2 241.1,207.3 246.8,221.8 252.5,236.3 258.2,250.2 263.9,222.1 269.6,236.4 275.4,208.0 281.1,179.9 286.8,194.4 292.5,209.0 298.2,223.5 303.9,237.8 309.6,208.9 315.3,223.2 321.0,194.6 326.7,166.2 332.4,136.9 338.1,108.3 343.8,123.8 349.5,94.1 355.2,109.8 360.9,125.4 366.6,140.7 372.3,156.0 378.0,171.2 383.7,186.5 389.4,157.1 395.1,127.7 400.8,142.4 406.5,157.4 412.3,172.7 418.0,142.4 423.7,112.7 429.4,127.8 435.1,143.1 440.8,158.3 446.5,173.7 452.2,142.8 457.9,113.2 463.6,128.3 469.3,143.6 475.0,159.0 480.7,174.0 486.4,143.7 492.1,114.1 497.8,129.5 503.5,98.7 509.2,68.1 514.9,36.4 520.6,52.2 526.3,68.3 532.0,83.1 537.7,98.8 543.5,114.4 549.2,129.8 554.9,144.7 560.6,159.9 566.3,128.7 572.0,98.2 577.7,113.1 583.4,82.6 589.1,98.5 594.8,67.3 600.5,82.9 606.2,98.6 611.9,114.4 617.6,129.8 623.3,145.0 629.0,160.2 634.7,129.3 640.4,144.6 646.1,114.7 651.8,130.1 657.5,145.5 663.2,160.6 668.9,175.6 674.6,190.5 680.4,205.2 686.1,219.8 691.8,234.2 697.5,248.4 703.2,262.5 708.9,276.6 714.6,290.5 720.3,304.2 726.0,277.1 731.7,250.1 737.4,222.0 743.1,236.0 748.8,250.4 754.5,264.6 760.2,278.5 765.9,292.3 771.6,305.9 777.3,319.4 783.0,333.2 788.7,306.7 794.4,320.0 800.1,333.3 805.8,306.3 811.5,279.3 817.3,252.3 823.0,266.4 828.7,280.1 834.4,295.7 840.1,309.6 845.8,323.1 851.5,336.9 857.2,350.0 862.9,363.1 868.6,337.2 874.3,350.6 880.0,363.6" fill="none" stroke="#1a7f5a" stroke-width="2"/><text x="70" y="16" font-size="13" fill="#333">Equity (per closed trade)</text></svg>